<?xml version="1.0" encoding="UTF-8"?>
<!-- Generator: Blender, SVG Export for Grease Pencil - v1.0 -->
<!DOCTYPE svg PUBLIC "-//W3C//DTD SVG 1.1//EN" "http://www.w3.org/Graphics/SVG/1.1/DTD/svg11.dtd">
<svg version="1.0" x="0px" y="0px" xmlns="http://www.w3.org/2000/svg" width="880px" height="495px" viewBox="0 0 880 495">
	<g id="blender_frame_40">
		<g id="blender_object_Stroke">
			<!--Layer: Lines-->
			<g id="Lines">
				<path fill-opacity="1" fill="#000000" stroke="none" d="M483.744843,186.903900L483.697052,186.940033L482.416443,187.750061L480.812134,189.404907L479.728790,191.077057L478.675171,193.006042L477.593140,195.389374L477.546661,195.467072L476.070312,197.435211L475.037781,199.480988L474.007568,201.926788L474.002899,201.937469L473.044556,204.054230L472.097595,206.577148L472.089020,206.598267L471.165924,208.727234L470.373474,211.323547L470.119202,213.956451L470.085052,216.675201L470.568878,219.428558L470.575684,219.494110L470.674438,222.286804L470.885193,224.910126L471.560425,227.002502L473.243988,231.603302L474.154083,233.593994L475.178558,235.521149L476.738556,237.370728L478.420197,239.106995L480.208405,240.414078L480.246277,240.444672L482.070496,242.068176L483.908630,243.275925L483.960815,243.315292L485.799500,244.892441L489.505127,247.012360L493.254608,248.933182L495.220825,249.851425L497.689331,250.650055L500.193604,251.026718L500.274750,251.045624L502.430847,251.717468L505.022858,251.868866L507.672363,251.871017L510.515656,251.361633L510.578125,251.354095L513.746643,251.141708L516.065674,250.509888L516.160339,250.492523L518.756775,250.231674L520.756104,249.475830L522.770142,248.661652L524.809387,247.760529L524.846069,247.745804L529.924805,245.895325L531.944092,244.879959L533.908752,243.419617L533.952271,243.390167L535.813416,242.242859L537.499146,240.621368L538.670227,238.934875L539.749023,237.124634L540.732361,235.282440L541.680054,233.323608L542.603821,230.824036L543.385986,228.257294L543.530029,225.749634L543.149902,223.456421L543.141663,223.366913L543.072327,220.154175L542.887024,217.510071L542.328369,215.220673L542.312805,215.126892L542.070129,212.460785L541.424744,209.783813L541.410156,209.698151L541.144958,207.111603L540.388184,205.063843L539.572449,203.048126L538.668091,201.010315L538.654602,200.977295L537.737549,198.566772L536.727905,196.646973L535.276733,194.710083L535.228027,194.634918L534.173950,192.754578L533.080322,191.075012L531.629944,189.806396L531.526672,189.693146L530.392700,188.136261L528.768860,186.974548L528.704163,186.921997L526.999939,185.363190L525.226318,184.317261L523.307495,183.302795L520.883728,182.485168L518.405945,182.082367L518.260132,182.042267L516.175049,181.228638L514.139099,180.543945L509.066284,180.051544L508.946075,180.029480L506.784515,179.445618L504.282562,179.196167L504.143616,179.168518L502.062775,178.544525L496.790039,178.290771L487.661591,178.243256L484.944885,178.354309L482.602325,178.889557L482.495117,178.906036L479.495270,179.149323L477.573120,180.019531L476.069000,182.170959L474.725067,184.433105L474.725067,184.433105L474.637939,184.551514L474.529419,184.650604L474.403687,184.726624L474.265472,184.776672L474.120178,184.798798L473.973389,184.792114L473.830658,184.756958L473.697571,184.694641L473.579193,184.607513L473.480072,184.498993L473.404053,184.373260L473.354034,184.235046L473.331879,184.089752L473.338562,183.942932L473.373749,183.800262L473.436066,183.667145L474.794342,181.382019L474.823608,181.336517L476.453979,178.987732L476.590210,178.839264L476.760834,178.732178L478.989471,177.716949L479.241028,177.651703L482.317963,177.400299L484.675812,176.862000L484.813843,176.843597L487.618103,176.731628L487.653137,176.731049L496.815369,176.794128L496.847900,176.795044L502.226471,177.069000L502.403503,177.099548L504.501282,177.734039L506.992371,177.987183L507.111511,178.009216L509.270996,178.598389L514.364075,179.106812L514.525635,179.141602L516.654297,179.865540L516.686646,179.877319L518.713989,180.676880L521.173401,181.085541L521.287048,181.113983L523.817688,181.977783L523.922546,182.023071L525.902222,183.079956L525.930786,183.095978L527.777100,184.194580L527.893738,184.281158L529.615967,185.866699L531.292358,187.075562L531.449036,187.231476L532.597717,188.820862L534.056946,190.106415L534.179993,190.248749L535.331177,192.031097L535.354492,192.069794L536.390625,193.934723L537.840088,195.883942L537.897217,195.974670L538.941895,197.982391L538.974915,198.056000L539.889221,200.491638L540.780151,202.527618L540.788513,202.547455L541.603088,204.585876L541.610107,204.604156L542.391724,206.740479L542.428284,206.898926L542.692139,209.524231L543.333679,212.205658L543.348938,212.298248L543.586975,214.964142L544.141968,217.261200L544.158508,217.368011L544.342651,220.082001L544.343994,220.112701L544.405884,223.295898L544.782776,225.614899L544.790039,225.753815L544.629822,228.405609L544.603516,228.551880L543.787231,231.205231L543.775635,231.239349L542.829651,233.781830L542.806152,233.836823L541.835388,235.831299L541.824219,235.853088L540.823914,237.716400L540.809692,237.741486L539.708679,239.580017L539.685608,239.615768L538.463867,241.366562L538.385742,241.457962L536.605835,243.162399L536.503601,243.241409L534.606873,244.404617L532.618774,245.876999L532.530212,245.931549L530.431152,246.982529L530.367126,247.010147L525.270935,248.857071L523.239136,249.749634L523.221619,249.757004L521.190613,250.572525L521.178040,250.577438L519.098145,251.357483L518.949219,251.392288L516.323364,251.648499L513.992737,252.273331L513.879517,252.292145L510.684052,252.494888L507.819672,252.994919L507.718964,253.003586L505.002563,252.986038L504.970184,252.984985L502.295776,252.811218L502.164124,252.786774L499.988464,252.091766L497.484131,251.702682L497.399353,251.682556L494.860535,250.852173L494.799316,250.827972L492.797424,249.885391L492.780060,249.876877L489.017578,247.934067L488.996429,247.922592L485.244476,245.761200L485.165192,245.705109L483.317871,244.113403L481.478577,242.899277L481.419678,242.854019L479.588837,241.218597L477.788330,239.896622L477.723633,239.840179L476.003571,238.057037L475.980408,238.031372L474.378998,236.124451L474.319702,236.036621L473.268097,234.046722L473.255005,234.020020L472.335876,231.995819L472.321289,231.960083L470.640320,227.327667L470.634125,227.309662L469.945801,225.152283L469.924164,225.042419L469.716156,222.351562L469.714935,222.330109L469.625153,219.559387L469.147675,216.793671L469.140686,216.706055L469.183868,213.923706L469.186066,213.884613L469.454773,211.186646L469.472992,211.095795L470.295319,208.432617L470.313385,208.383789L471.251648,206.245483L472.209991,203.723114L472.221466,203.695557L473.194092,201.575287L474.240570,199.126221L474.253418,199.098602L475.324860,197.013062L475.364929,196.949066L476.852844,194.999268L477.943146,192.652649L477.957214,192.624878L479.053406,190.684998L479.068665,190.659851L480.206299,188.960510L480.253784,188.902161L481.956940,187.236359L482.018585,187.187225L483.317413,186.388306L485.184113,184.800995L485.184113,184.800995L485.224243,184.771210L485.269348,184.749817L485.317810,184.737610L485.367737,184.735107L485.417175,184.742401L485.464203,184.759186L485.507111,184.784821L485.544159,184.818359L485.573944,184.858490L485.595337,184.903625L485.607513,184.952057L485.610016,185.001984L485.602722,185.051422L485.585938,185.098480L485.560303,185.141327L485.526794,185.178406L483.762665,186.886627z" />
			</g>
		</g>
	</g>
</svg>
