<?xml version="1.0" encoding="UTF-8" standalone="no"?>
<!-- Created with Inkscape (http://www.inkscape.org/) -->

<svg
   width="16.885998mm"
   height="30.354097mm"
   viewBox="0 0 16.885998 30.354097"
   version="1.1"
   id="svg1"
   xmlns="http://www.w3.org/2000/svg"
   xmlns:svg="http://www.w3.org/2000/svg">
  <defs
     id="defs1" />
  <g
     id="layer1"
     transform="translate(-71.700755,-50.001667)">
    <path
       style="color:#000000;fill:#000000;fill-rule:evenodd;-inkscape-stroke:none"
       d="m 71.662109,50.001953 v 30.353516 h 0.341797 c 0,-10.117839 4.088059,-18.178504 0,-30.353516 z"
       id="path1"
       transform="matrix(0.77370646,0,0,0.77370646,18.004149,13.732408)" />
    <path
       style="color:#000000;fill:#000000;fill-rule:evenodd;-inkscape-stroke:none"
       d="m 72.5625,56.035156 -0.283203,0.191406 c 2.751084,4.103512 5.499855,8.214662 8.228515,10.4375 2.72866,2.222838 5.414195,2.512643 8.046875,2.794922 l 0.03711,-0.339843 C 85.959117,68.836861 85.386866,65.792643 82.73171,63.629684 80.076556,61.466727 75.313584,60.138668 72.5625,56.035156 Z"
       id="path2"
       transform="matrix(0.77370646,0,0,0.77370646,18.004149,13.732408)" />
    <path
       style="color:#000000;fill:#000000;fill-rule:evenodd;stroke-width:0.264583;-inkscape-stroke:none"
       d="m 73.86641,49.076601 c -0.218855,-0.01421 -0.442317,-0.0058 -0.667659,0.02791 -1.626768,0.243092 -2.846771,1.779083 -2.593124,3.428732 0.227165,1.477415 1.626098,2.584769 3.125908,2.346626 1.331511,-0.21142 2.328701,-1.476409 2.105814,-2.829801 -0.195855,-1.189257 -1.330336,-2.079096 -2.54093,-1.871204 -1.050885,0.180467 -1.837009,1.18817 -1.643827,2.259811 0.165245,0.916668 1.050162,1.60143 1.986959,1.422652 0.786929,-0.150178 1.374464,-0.916 1.209745,-1.722376 -0.13524,-0.662063 -0.786341,-1.156165 -1.467094,-1.005106 -0.542558,0.120393 -0.947658,0.662278 -0.80977,1.222664 0.105571,0.429046 0.543241,0.749626 0.989087,0.624251 0.322382,-0.09066 0.565,-0.43162 0.451136,-0.769462 -0.03772,-0.111905 -0.118424,-0.209188 -0.220142,-0.267167 -0.101718,-0.05798 -0.226618,-0.07588 -0.345199,-0.02377 -0.06774,0.02977 -0.127101,0.08656 -0.15968,0.155546 -0.03258,0.06898 -0.03656,0.153935 0.01292,0.225826 0.0221,0.03211 0.05895,0.05734 0.101286,0.06873 0.02117,0.0057 0.04455,0.0077 0.0677,0 0.02315,-0.0077 0.04417,-0.02624 0.05581,-0.05168 l -0.06356,-0.02945 c -0.0048,0.01048 -0.0086,0.01253 -0.01447,0.01447 -0.0058,0.0019 -0.01556,0.0027 -0.02739,-5.29e-4 -0.02367,-0.0064 -0.05266,-0.02851 -0.0615,-0.04134 -0.03444,-0.05005 -0.0319,-0.10383 -0.0072,-0.156063 0.02467,-0.05223 0.07333,-0.09916 0.124024,-0.12144 0.09694,-0.04259 0.196614,-0.02838 0.28267,0.02067 0.08606,0.04905 0.156208,0.13378 0.188102,0.22841 0.09959,0.29549 -0.115915,0.599311 -0.403076,0.680062 -0.404175,0.113656 -0.806015,-0.18032 -0.902787,-0.573609 -0.127753,-0.519192 0.250671,-1.025031 0.757059,-1.137398 0.639906,-0.141995 1.255592,0.325274 1.383378,0.950847 0.156429,0.765788 -0.404266,1.496011 -1.154451,1.639176 -0.896412,0.171071 -1.746209,-0.486608 -1.904793,-1.366325 -0.185931,-1.031416 0.573218,-2.004587 1.586983,-2.178678 1.1705,-0.201008 2.270079,0.661848 2.459798,1.813842 0.216301,1.313408 -0.753293,2.544219 -2.04742,2.749704 -1.459918,0.231817 -2.824409,-0.848296 -3.04581,-2.288224 -0.247525,-1.609833 0.945022,-3.111673 2.534212,-3.349149 1.762989,-0.263448 3.404459,1.044657 3.658174,2.786393 0.08606,0.590754 0.01289,1.201228 -0.206188,1.756482 l 0.06511,0.02532 c 0.223549,-0.566596 0.298182,-1.188481 0.210323,-1.791622 -0.226801,-1.556968 -1.538108,-2.774253 -3.070097,-2.873726 z"
       id="path3" />
  </g>
</svg>
